/* XPM */
static char * apple_green_xpm[] = {
"48 48 933 2",
"  	c None",
". 	c #5E6A59",
"+ 	c #5F6B5B",
"@ 	c #5F6B5A",
"# 	c #5E6A5A",
"$ 	c #524A38",
"% 	c #000000",
"& 	c #616F5C",
"* 	c #6E7B60",
"= 	c #87986E",
"- 	c #7C8E69",
"; 	c #65725D",
"> 	c #5B533F",
", 	c #181610",
"' 	c #616D5C",
") 	c #6A7760",
"! 	c #81926C",
"~ 	c #738263",
"{ 	c #778866",
"] 	c #8C9D72",
"^ 	c #81926B",
"/ 	c #4B4433",
"( 	c #606C5B",
"_ 	c #6B7960",
": 	c #7C8C69",
"< 	c #707E62",
"[ 	c #69775F",
"} 	c #6D7B62",
"| 	c #6B7961",
"1 	c #6E7D63",
"2 	c #707F63",
"3 	c #0D0C08",
"4 	c #64705C",
"5 	c #8A9B71",
"6 	c #718064",
"7 	c #6D7A61",
"8 	c #778666",
"9 	c #90A274",
"0 	c #899A70",
"a 	c #8D9F72",
"b 	c #8B9D71",
"c 	c #7F8F6B",
"d 	c #5E6A58",
"e 	c #4A4333",
"f 	c #616E5C",
"g 	c #7E8E69",
"h 	c #6E7D62",
"i 	c #7A8A68",
"j 	c #8A9C70",
"k 	c #717F64",
"l 	c #738262",
"m 	c #6D7B5E",
"n 	c #606C58",
"o 	c #5D6958",
"p 	c #5D6956",
"q 	c #393427",
"r 	c #636F5D",
"s 	c #728164",
"t 	c #82936B",
"u 	c #84966D",
"v 	c #65735C",
"w 	c #5C6855",
"x 	c #2C291F",
"y 	c #898259",
"z 	c #8C845B",
"A 	c #877E5A",
"B 	c #857F58",
"C 	c #7F7A53",
"D 	c #7A734E",
"E 	c #726F48",
"F 	c #63623F",
"G 	c #565537",
"H 	c #67745F",
"I 	c #748365",
"J 	c #707F62",
"K 	c #83946D",
"L 	c #5C6856",
"M 	c #070806",
"N 	c #8D845B",
"O 	c #968F61",
"P 	c #999163",
"Q 	c #999266",
"R 	c #999066",
"S 	c #968F62",
"T 	c #8E855C",
"U 	c #8A8258",
"V 	c #817C50",
"W 	c #7D784E",
"X 	c #73734A",
"Y 	c #686942",
"Z 	c #5A5C39",
"` 	c #67745E",
" .	c #758364",
"..	c #85966C",
"+.	c #6F7D62",
"@.	c #5F6C59",
"#.	c #887C56",
"$.	c #8F7F59",
"%.	c #94865B",
"&.	c #91855A",
"*.	c #8F8259",
"=.	c #8E8259",
"-.	c #867F55",
";.	c #857C53",
">.	c #988F62",
",.	c #9E9666",
"'.	c #A39B6B",
").	c #A59D6D",
"!.	c #A59E6E",
"~.	c #A59C6E",
"{.	c #A09569",
"].	c #9D9164",
"^.	c #988B60",
"/.	c #90845B",
"(.	c #888253",
"_.	c #817E53",
":.	c #737149",
"<.	c #666840",
"[.	c #5A5C3B",
"}.	c #515535",
"|.	c #6C7960",
"1.	c #707E63",
"2.	c #606C5A",
"3.	c #8F815B",
"4.	c #978760",
"5.	c #9E9065",
"6.	c #A39467",
"7.	c #A6986A",
"8.	c #A79A6C",
"9.	c #A49A6A",
"0.	c #A69B6C",
"a.	c #A89C6E",
"b.	c #AA9F6F",
"c.	c #AAA171",
"d.	c #ADA573",
"e.	c #AEA573",
"f.	c #B0A877",
"g.	c #ACA375",
"h.	c #A89D70",
"i.	c #A59A6C",
"j.	c #A19466",
"k.	c #A29464",
"l.	c #9B8D5E",
"m.	c #908759",
"n.	c #888256",
"o.	c #807D51",
"p.	c #727249",
"q.	c #64653F",
"r.	c #595B39",
"s.	c #545936",
"t.	c #738164",
"u.	c #63705A",
"v.	c #92845B",
"w.	c #9A8C63",
"x.	c #A5956A",
"y.	c #AA9D70",
"z.	c #AFA072",
"A.	c #B7AC81",
"B.	c #BCB089",
"C.	c #B1A679",
"D.	c #B5A87C",
"E.	c #B6AB7A",
"F.	c #B6AB7C",
"G.	c #B7AC7D",
"H.	c #B7AE7C",
"I.	c #B5AD7C",
"J.	c #B5AE7D",
"K.	c #B4AC7B",
"L.	c #ACA473",
"M.	c #A99F6E",
"N.	c #A69A6B",
"O.	c #A49665",
"P.	c #A09464",
"Q.	c #988B5E",
"R.	c #8E8559",
"S.	c #837F55",
"T.	c #75744B",
"U.	c #6C6C44",
"V.	c #5E5F3A",
"W.	c #535434",
"X.	c #535737",
"Y.	c #626F5A",
"Z.	c #8D805A",
"`.	c #9F9167",
" +	c #A99D72",
".+	c #B9AD87",
"++	c #CCC2A4",
"@+	c #E1DCCB",
"#+	c #D9D2BB",
"$+	c #D8D1B8",
"%+	c #C6BC99",
"&+	c #BAAF82",
"*+	c #BBB082",
"=+	c #BDB284",
"-+	c #BAB083",
";+	c #BCB383",
">+	c #BBB383",
",+	c #B7B081",
"'+	c #B3AC7C",
")+	c #ADA874",
"!+	c #AAA36E",
"~+	c #A79C6B",
"{+	c #A39666",
"]+	c #A39564",
"^+	c #9D9062",
"/+	c #968C5C",
"(+	c #877F53",
"_+	c #79764E",
":+	c #6B6A46",
"<+	c #61633E",
"[+	c #535537",
"}+	c #4C5231",
"|+	c #4F5533",
"1+	c #837C56",
"2+	c #9D9167",
"3+	c #A99D70",
"4+	c #CBC1A2",
"5+	c #E2DECD",
"6+	c #EBE7DB",
"7+	c #E3DFCC",
"8+	c #DAD4BD",
"9+	c #D3CBAE",
"0+	c #C2B78C",
"a+	c #C0B789",
"b+	c #C0B68A",
"c+	c #BFB588",
"d+	c #BFB687",
"e+	c #BCB585",
"f+	c #BBB584",
"g+	c #B9B283",
"h+	c #B5AF7D",
"i+	c #AFAA77",
"j+	c #AAA470",
"k+	c #A69F6A",
"l+	c #A49A68",
"m+	c #A19665",
"n+	c #9E9464",
"o+	c #958A5E",
"p+	c #8B8355",
"q+	c #817B53",
"r+	c #727149",
"s+	c #656640",
"t+	c #565B39",
"u+	c #4D5031",
"v+	c #505334",
"w+	c #575D3A",
"x+	c #9A9064",
"y+	c #A79C6D",
"z+	c #BFB58E",
"A+	c #DDD7C4",
"B+	c #E5E0D1",
"C+	c #E8E4D5",
"D+	c #DCD7C0",
"E+	c #D0CCAB",
"F+	c #C6BD95",
"G+	c #C3BA90",
"H+	c #C7BD96",
"I+	c #C1BA8E",
"J+	c #C2B98C",
"K+	c #C1B88A",
"L+	c #C0B989",
"M+	c #BBB784",
"N+	c #B8B281",
"O+	c #B3AF7D",
"P+	c #ADAB75",
"Q+	c #AAA571",
"R+	c #A5A16E",
"S+	c #A49E6A",
"T+	c #A29967",
"U+	c #9D9362",
"V+	c #988D5E",
"W+	c #91885A",
"X+	c #858054",
"Y+	c #78764B",
"Z+	c #696C41",
"`+	c #5A5E3A",
" @	c #4E5334",
".@	c #4E5432",
"+@	c #555B38",
"@@	c #8E845B",
"#@	c #A1966A",
"$@	c #B0A477",
"%@	c #D1C9AE",
"&@	c #E1DCC9",
"*@	c #E1DDC9",
"=@	c #DDD7BF",
"-@	c #DFDBC5",
";@	c #C8C199",
">@	c #C6BF98",
",@	c #D1CAA9",
"'@	c #C7BF99",
")@	c #C2BC90",
"!@	c #C1B98B",
"~@	c #C1BA8C",
"{@	c #C0B988",
"]@	c #BAB684",
"^@	c #B7B280",
"/@	c #B2AE79",
"(@	c #ACAA74",
"_@	c #A9A66F",
":@	c #A4A16C",
"<@	c #A29E6A",
"[@	c #9F9A67",
"}@	c #9B9362",
"|@	c #988F5F",
"1@	c #90875A",
"2@	c #887E54",
"3@	c #7A774B",
"4@	c #737349",
"5@	c #5F643C",
"6@	c #515434",
"7@	c #4C522F",
"8@	c #4D5434",
"9@	c #505636",
"0@	c #978F60",
"a@	c #A69D6D",
"b@	c #B4AC7E",
"c@	c #DDD8C3",
"d@	c #E1DCC8",
"e@	c #D9D6BC",
"f@	c #E0DBC5",
"g@	c #CBC6A2",
"h@	c #C8C197",
"i@	c #CEC6A2",
"j@	c #CCC8A3",
"k@	c #C2BC91",
"l@	c #C2BC8F",
"m@	c #C0BA8D",
"n@	c #C0BA8C",
"o@	c #BDB889",
"p@	c #B9B581",
"q@	c #B5B17D",
"r@	c #B0AC77",
"s@	c #AAA873",
"t@	c #A8A570",
"u@	c #A3A16C",
"v@	c #9E9B68",
"w@	c #9B9665",
"x@	c #9A9261",
"y@	c #958C5C",
"z@	c #8D8557",
"A@	c #878154",
"B@	c #7E7A51",
"C@	c #70724A",
"D@	c #606540",
"E@	c #525636",
"F@	c #48502E",
"G@	c #4B5230",
"H@	c #4D5435",
"I@	c #867F57",
"J@	c #A9A171",
"K@	c #C8C19F",
"L@	c #DDDAC4",
"M@	c #DFDAC4",
"N@	c #DAD4B9",
"O@	c #D0CBAB",
"P@	c #D3D0AF",
"Q@	c #C8C198",
"R@	c #C8C19E",
"S@	c #C7C197",
"T@	c #C1BC92",
"U@	c #C2BB8F",
"V@	c #BFBA8C",
"W@	c #BFB98A",
"X@	c #BBB685",
"Y@	c #B6B280",
"Z@	c #AFAC76",
"`@	c #A8A671",
" #	c #A7A570",
".#	c #A2A16B",
"+#	c #9D9A67",
"@#	c #9A9764",
"##	c #979160",
"$#	c #908A5C",
"%#	c #8A8358",
"&#	c #867C53",
"*#	c #7A774E",
"=#	c #717348",
"-#	c #646641",
";#	c #545935",
">#	c #4B5130",
",#	c #464F2C",
"'#	c #495031",
")#	c #8D865C",
"!#	c #9E9869",
"~#	c #AAA473",
"{#	c #C9C6A6",
"]#	c #D6D2B9",
"^#	c #DAD4BA",
"/#	c #D2CCAD",
"(#	c #D5CFB0",
"_#	c #C7C29A",
":#	c #C7C19A",
"<#	c #C6C099",
"[#	c #C3BE95",
"}#	c #C0BD90",
"|#	c #C1BA8D",
"1#	c #BFB989",
"2#	c #BDB886",
"3#	c #B1AE79",
"4#	c #ABAA74",
"5#	c #A9A772",
"6#	c #A6A56F",
"7#	c #A2A26D",
"8#	c #9B9B67",
"9#	c #979363",
"0#	c #969160",
"a#	c #8A8357",
"b#	c #837D53",
"c#	c #79784D",
"d#	c #6D6F47",
"e#	c #626841",
"f#	c #525637",
"g#	c #495231",
"h#	c #454A2E",
"i#	c #454D2F",
"j#	c #908C5E",
"k#	c #A09969",
"l#	c #ACA676",
"m#	c #CFCAAE",
"n#	c #D2CDB0",
"o#	c #CCC5A2",
"p#	c #CCC7A5",
"q#	c #C9C5A0",
"r#	c #C4BF96",
"s#	c #C4C095",
"t#	c #C4C197",
"u#	c #C1BB93",
"v#	c #C0BA8E",
"w#	c #BDB98B",
"x#	c #BDB988",
"y#	c #B6B27F",
"z#	c #B2AF7A",
"A#	c #ACAB74",
"B#	c #A9A872",
"C#	c #A8A770",
"D#	c #A3A26D",
"E#	c #9D9C68",
"F#	c #9A9A67",
"G#	c #989462",
"H#	c #918E60",
"I#	c #8B8659",
"J#	c #898156",
"K#	c #827D53",
"L#	c #77774D",
"M#	c #6C7048",
"N#	c #60643B",
"O#	c #535736",
"P#	c #49512F",
"Q#	c #434A2D",
"R#	c #444C2E",
"S#	c #918C5E",
"T#	c #9E9868",
"U#	c #ABA474",
"V#	c #CAC5A7",
"W#	c #CBC6A6",
"X#	c #C5C19C",
"Y#	c #C4C099",
"Z#	c #C2BF96",
"`#	c #C1BD93",
" $	c #C1BE96",
".$	c #C2BD93",
"+$	c #BEBA8D",
"@$	c #BEB98A",
"#$	c #BAB789",
"$$	c #BAB784",
"%$	c #B6B380",
"&$	c #B2B07D",
"*$	c #AFAE78",
"=$	c #AAA974",
"-$	c #A6A670",
";$	c #A5A56F",
">$	c #A0A06B",
",$	c #9B9B68",
"'$	c #959664",
")$	c #949262",
"!$	c #8F8C5A",
"~$	c #898759",
"{$	c #848355",
"]$	c #7D7B50",
"^$	c #747649",
"/$	c #6C6E44",
"($	c #5D613B",
"_$	c #505735",
":$	c #495030",
"<$	c #444A2C",
"[$	c #908D5E",
"}$	c #9F9A69",
"|$	c #ACA776",
"1$	c #C5C19F",
"2$	c #C4BF9A",
"3$	c #BFBA8D",
"4$	c #BEB98D",
"5$	c #BEBA91",
"6$	c #BEBA8E",
"7$	c #BBB889",
"8$	c #B8B485",
"9$	c #B5B282",
"0$	c #B6B382",
"a$	c #B3B17F",
"b$	c #AFAD79",
"c$	c #ACAB76",
"d$	c #A8A872",
"e$	c #A6A770",
"f$	c #A3A36D",
"g$	c #9D9C69",
"h$	c #979965",
"i$	c #949463",
"j$	c #90915F",
"k$	c #898B5A",
"l$	c #878757",
"m$	c #828255",
"n$	c #7B7A4D",
"o$	c #71744A",
"p$	c #656A41",
"q$	c #565936",
"r$	c #4B5231",
"s$	c #464D2E",
"t$	c #43492C",
"u$	c #464C2F",
"v$	c #8C895B",
"w$	c #9A9867",
"x$	c #A9A677",
"y$	c #B8B68E",
"z$	c #BFBD99",
"A$	c #C1BE97",
"B$	c #BDB990",
"C$	c #BBB78B",
"D$	c #B9B587",
"E$	c #B9B688",
"F$	c #BBB789",
"G$	c #B6B386",
"H$	c #B2AF81",
"I$	c #B3B17E",
"J$	c #B3B27D",
"K$	c #B0AF7B",
"L$	c #AEAD75",
"M$	c #AAAA73",
"N$	c #A7A870",
"O$	c #A4A56F",
"P$	c #9FA16B",
"Q$	c #9C9D68",
"R$	c #959865",
"S$	c #939461",
"T$	c #8B8D5D",
"U$	c #888A5B",
"V$	c #868759",
"W$	c #7C7E54",
"X$	c #777A4E",
"Y$	c #6A6E46",
"Z$	c #5F623C",
"`$	c #545B36",
" %	c #4B4F2E",
".%	c #434E2D",
"+%	c #41472B",
"@%	c #424B2E",
"#%	c #8B8A5C",
"$%	c #979464",
"%%	c #A4A171",
"&%	c #AFAD83",
"*%	c #BDBA92",
"=%	c #BAB891",
"-%	c #B7B48A",
";%	c #B5B286",
">%	c #B5B283",
",%	c #B4B282",
"'%	c #B4B281",
")%	c #B1B07C",
"!%	c #B0AE7A",
"~%	c #ADAD76",
"{%	c #ABAC74",
"]%	c #A6A76F",
"^%	c #A5A76F",
"/%	c #A0A36C",
"(%	c #999D68",
"_%	c #959866",
":%	c #919462",
"<%	c #8E905F",
"[%	c #888B5A",
"}%	c #858659",
"|%	c #818354",
"1%	c #7D7F54",
"2%	c #717549",
"3%	c #686B44",
"4%	c #595E3D",
"5%	c #4B5332",
"6%	c #464E2D",
"7%	c #41472C",
"8%	c #40492B",
"9%	c #868559",
"0%	c #908E5E",
"a%	c #9D9C6C",
"b%	c #A8A778",
"c%	c #B1B085",
"d%	c #B5B587",
"e%	c #B2B184",
"f%	c #ACAC7E",
"g%	c #AFAE7F",
"h%	c #B1AF7E",
"i%	c #B1AF7F",
"j%	c #AFAE7D",
"k%	c #AEAD79",
"l%	c #AEAE78",
"m%	c #ACAD76",
"n%	c #AAAB73",
"o%	c #AAAB72",
"p%	c #A5A770",
"q%	c #A1A46D",
"r%	c #9DA169",
"s%	c #969966",
"t%	c #909361",
"u%	c #8F9260",
"v%	c #888C5D",
"w%	c #86895B",
"x%	c #848658",
"y%	c #7E8153",
"z%	c #767A4E",
"A%	c #6B7148",
"B%	c #5F643D",
"C%	c #555B3A",
"D%	c #495332",
"E%	c #444B2D",
"F%	c #3F482A",
"G%	c #3F472B",
"H%	c #7F7F54",
"I%	c #8A8A5B",
"J%	c #959466",
"K%	c #9F9E73",
"L%	c #A9A87D",
"M%	c #ACAB7F",
"N%	c #ADAC7B",
"O%	c #A8A777",
"P%	c #AAA975",
"Q%	c #ACAC79",
"R%	c #ACAC7A",
"S%	c #ACAC78",
"T%	c #ACAC77",
"U%	c #ACAC76",
"V%	c #ABAC75",
"W%	c #A6A871",
"X%	c #A2A56F",
"Y%	c #A4A66E",
"Z%	c #9DA06A",
"`%	c #979B66",
" &	c #919663",
".&	c #8E9261",
"+&	c #8B8E5D",
"@&	c #848A58",
"#&	c #808556",
"$&	c #7D8253",
"%&	c #797E54",
"&&	c #6E724A",
"*&	c #666B44",
"=&	c #5B623B",
"-&	c #525835",
";&	c #454B2D",
">&	c #41492B",
",&	c #40462B",
"'&	c #434D2F",
")&	c #838358",
"!&	c #919262",
"~&	c #969769",
"{&	c #9E9F70",
"]&	c #A2A375",
"^&	c #A2A373",
"/&	c #A4A571",
"(&	c #A6A772",
"_&	c #A8A974",
":&	c #A7A875",
"<&	c #A7A873",
"[&	c #A7A872",
"}&	c #A9AB74",
"|&	c #A7A971",
"1&	c #A3A66E",
"2&	c #A1A56E",
"3&	c #9CA069",
"4&	c #979C67",
"5&	c #969A64",
"6&	c #8E9360",
"7&	c #8C925D",
"8&	c #878B5A",
"9&	c #808658",
"0&	c #7F8254",
"a&	c #787D4F",
"b&	c #70774B",
"c&	c #676B43",
"d&	c #61643F",
"e&	c #505634",
"f&	c #4A5330",
"g&	c #42482B",
"h&	c #3F482C",
"i&	c #7E8054",
"j&	c #898B5C",
"k&	c #8F9063",
"l&	c #969766",
"m&	c #9B9C6B",
"n&	c #9E9F6A",
"o&	c #9D9E6B",
"p&	c #A0A26C",
"q&	c #A1A26E",
"r&	c #A2A46E",
"s&	c #A3A572",
"t&	c #A3A66F",
"u&	c #9EA26B",
"v&	c #9B9F69",
"w&	c #9A9E66",
"x&	c #959A63",
"y&	c #919760",
"z&	c #8B915F",
"A&	c #858D5A",
"B&	c #848B5A",
"C&	c #7D8454",
"D&	c #777C51",
"E&	c #72784B",
"F&	c #6B6D47",
"G&	c #626742",
"H&	c #575F3B",
"I&	c #4E5637",
"J&	c #46502E",
"K&	c #3D4328",
"L&	c #3E452A",
"M&	c #475031",
"N&	c #848758",
"O&	c #898B5B",
"P&	c #8C8E5D",
"Q&	c #929463",
"R&	c #949764",
"S&	c #989A66",
"T&	c #9B9E68",
"U&	c #9B9D69",
"V&	c #9CA06A",
"W&	c #9FA26B",
"X&	c #9EA26A",
"Y&	c #9FA36C",
"Z&	c #9DA269",
"`&	c #9A9F68",
" *	c #979D67",
".*	c #909563",
"+*	c #8E9461",
"@*	c #89905C",
"#*	c #838B5A",
"$*	c #7D8655",
"%*	c #7B8253",
"&*	c #767D51",
"**	c #6E754B",
"=*	c #686C47",
"-*	c #626943",
";*	c #5C613F",
">*	c #555D3D",
",*	c #4B5234",
"'*	c #424A2F",
")*	c #3C4228",
"!*	c #3C4529",
"~*	c #7C7F54",
"{*	c #808355",
"]*	c #858657",
"^*	c #8A8B5C",
"/*	c #8D9060",
"(*	c #939762",
"_*	c #949966",
":*	c #949964",
"<*	c #979C64",
"[*	c #949A63",
"}*	c #909662",
"|*	c #878E5A",
"1*	c #808856",
"2*	c #7C8453",
"3*	c #788052",
"4*	c #72784F",
"5*	c #6D744A",
"6*	c #696F46",
"7*	c #616943",
"8*	c #606741",
"9*	c #596040",
"0*	c #51593A",
"a*	c #464F31",
"b*	c #3E4629",
"c*	c #3E462A",
"d*	c #40492E",
"e*	c #777B52",
"f*	c #7E8155",
"g*	c #7E8255",
"h*	c #838758",
"i*	c #888B5C",
"j*	c #8B905E",
"k*	c #8C925F",
"l*	c #8A8F5E",
"m*	c #8D925F",
"n*	c #8C915E",
"o*	c #8B9160",
"p*	c #888F5D",
"q*	c #888E5D",
"r*	c #858D5B",
"s*	c #818A5A",
"t*	c #7B8254",
"u*	c #7A8253",
"v*	c #777D4C",
"w*	c #71784C",
"x*	c #6F754A",
"y*	c #6A7248",
"z*	c #656E46",
"A*	c #5F6641",
"B*	c #586140",
"C*	c #545E3D",
"D*	c #4C5436",
"E*	c #454C2F",
"F*	c #40472C",
"G*	c #3B4529",
"H*	c #1A1E11",
"I*	c #75784D",
"J*	c #797F53",
"K*	c #7C8153",
"L*	c #7B8153",
"M*	c #808555",
"N*	c #828858",
"O*	c #858A58",
"P*	c #828859",
"Q*	c #818856",
"R*	c #7D8554",
"S*	c #7F8754",
"T*	c #7C8556",
"U*	c #798053",
"V*	c #747C4E",
"W*	c #71764A",
"X*	c #6E7448",
"Y*	c #6C7546",
"Z*	c #626A44",
"`*	c #656C43",
" =	c #626844",
".=	c #5B6442",
"+=	c #5A6141",
"@=	c #525B39",
"#=	c #484F35",
"$=	c #40462E",
"%=	c #232918",
"&=	c #72774F",
"*=	c #73794E",
"==	c #76794E",
"-=	c #777C50",
";=	c #787B50",
">=	c #757C50",
",=	c #777D4F",
"'=	c #787F51",
")=	c #777D50",
"!=	c #73774E",
"~=	c #71754A",
"{=	c #6A7047",
"]=	c #687046",
"^=	c #666B46",
"/=	c #626B41",
"(=	c #636B40",
"_=	c #5F663F",
":=	c #5A633F",
"<=	c #606743",
"[=	c #5C6442",
"}=	c #535F3C",
"|=	c #4C5639",
"1=	c #484E31",
"2=	c #41482C",
"3=	c #313823",
"4=	c #6B7047",
"5=	c #6C7349",
"6=	c #6B724B",
"7=	c #6C724A",
"8=	c #6B7248",
"9=	c #6D7248",
"0=	c #6A7046",
"a=	c #676D43",
"b=	c #636A42",
"c=	c #616842",
"d=	c #60673F",
"e=	c #5E653E",
"f=	c #5B653C",
"g=	c #5A6540",
"h=	c #5B653D",
"i=	c #5A6440",
"j=	c #58613E",
"k=	c #575F3E",
"l=	c #4E5738",
"m=	c #475233",
"n=	c #434C2E",
"o=	c #363E27",
"p=	c #5E633D",
"q=	c #666D44",
"r=	c #656D46",
"s=	c #636944",
"t=	c #626842",
"u=	c #616742",
"v=	c #60683F",
"w=	c #5E633E",
"x=	c #59603A",
"y=	c #586039",
"z=	c #57603A",
"A=	c #565F37",
"B=	c #586139",
"C=	c #565E3A",
"D=	c #5A613D",
"E=	c #59623E",
"F=	c #565F3E",
"G=	c #545D3C",
"H=	c #4F5838",
"I=	c #495134",
"J=	c #394029",
"K=	c #333723",
"L=	c #5E643F",
"M=	c #59603C",
"N=	c #58623C",
"O=	c #565D39",
"P=	c #555D38",
"Q=	c #565F39",
"R=	c #545E37",
"S=	c #56603A",
"T=	c #535B39",
"U=	c #575F39",
"V=	c #555E39",
"W=	c #545F3C",
"X=	c #535C3A",
"Y=	c #4D5637",
"Z=	c #485032",
"`=	c #2E3520",
" -	c #0C0D08",
".-	c #3A4028",
"+-	c #525938",
"@-	c #0E1009",
"#-	c #0F100A",
"$-	c #313722",
"%-	c #4C5434",
"&-	c #515A35",
"*-	c #505A36",
"=-	c #363C24",
"--	c #0F110B",
";-	c #1A1D13",
">-	c #1B1D13",
"                                                                                                ",
"                                                                                                ",
"                                                                                                ",
"                                                                                                ",
"                                                                                                ",
"                                                                                                ",
"                    . + @ #                   $ %                                               ",
"                  & * = - ; +               > , %                                               ",
"                ' ) ! ~ { ] ^ +             / %                                                 ",
"              ( _ : < [ } | 1 2 (         > 3 %                                                 ",
"            ( 4 5 6 7 8 9 0 a b c ' d     e %                                                   ",
"            f g h i j k l m n o # @ @ p   q %                                                   ",
"          r s < t ) u v d @ @       w . p x %     y z A B C D E F G                             ",
"          H I J K [ w .                 L M   N O P Q R S T U V W X Y Z                         ",
"        `  ...+.@.. @       #.$.%.&.*.=.-.;.>.,.'.).!.~.{.].^./.(._.:.<.[.}.                    ",
"      |.1.~ 2.d .       3.4.5.6.7.8.9.0.a.b.c.d.e.f.g.h.i.j.k.l.m.n.o.p.q.r.s.                  ",
"      t.u.d           v.w.x.y.z.A.B.C.D.E.F.G.H.I.J.K.L.M.N.O.P.Q.R.S.T.U.V.W.X.                ",
"      Y.            Z.`. +.+++@+#+$+%+&+*+=+-+;+>+,+'+)+!+~+{+]+^+/+(+_+:+<+[+}+|+              ",
"                  1+2+3+4+5+6+7+8+9+0+a+b+c+d+e+f+g+h+i+j+k+l+m+n+o+p+q+r+s+t+u+v+w+            ",
"                  x+y+z+A+B+C+D+E+F+G+H+I+J+K+L+M+N+O+P+Q+R+S+T+U+V+W+X+Y+Z+`+ @.@+@            ",
"                @@#@$@%@&@*@=@-@;@>@,@'@)@!@~@{@]@^@/@(@_@:@<@[@}@|@1@2@3@4@5@6@7@8@9@          ",
"                0@a@b@c@d@e@f@g@h@i@j@k@l@m@n@o@p@q@r@s@t@u@v@w@x@y@z@A@B@C@D@E@F@G@H@          ",
"              I@P J@K@L@M@N@O@P@Q@R@S@T@U@V@W@X@Y@/@Z@`@ #.#+#@###$#%#&#*#=#-#;#>#,#'#          ",
"              )#!#~#{#]#^#/#(#_#:#<#[#}#|#1#2#p@q@3#4#5#6#7#8#9#0#$#a#b#c#d#e#f#g#h#i#          ",
"              j#k#l#m#n#o#p#q#r#s#t#u#v#w#x#M+y#z#A#B#C#D#E#F#G#H#I#J#K#L#M#N#O#P#Q#R#          ",
"              S#T#U#V#W#X#Y#Z#`# $.$+$@$#$$$%$&$*$=$-$;$>$,$'$)$!$~${$]$^$/$($_$:$R#<$          ",
"              [$}$|$1$1$2$Z#3$4$5$6$7$8$9$0$a$b$c$d$e$f$g$h$i$j$k$l$m$n$o$p$q$r$s$t$u$          ",
"              v$w$x$y$z$A$B$C$D$E$F$G$H$I$J$K$L$M$N$O$P$Q$R$S$T$U$V$W$X$Y$Z$`$ %.%+%@%          ",
"              #%$%%%&%*%=%-%;%9$>%,%'%)%!%*$~%{%]%^%/%(%_%:%<%[%}%|%1%2%3%4%5%6%7%8%            ",
"              9%0%a%b%c%d%e%f%g%h%i%j%k%l%m%n%o%p%q%r%s%t%u%v%w%x%y%z%A%B%C%D%E%F%G%            ",
"              H%I%J%K%L%M%N%O%P%Q%R%S%T%U%V%W%X%Y%Z%`% &.&+&@&#&$&%&&&*&=&-&;&>&,&'&            ",
"                )&!&~&{&]&^&/&(&_&:&<&[&}&|&1&2&3&4&5&6&7&8&9&0&a&b&c&d&e&f&g&h&G%              ",
"                i&j&k&l&m&n&o&p&q&r&s&^%t&X%u&v&w&x&y&z&A&B&C&D&E&F&G&H&I&J&K&L&M&              ",
"                  N&O&P&Q&R&S&T&U&V&W&X&Y&Z&`& *.*+*@*#*$*%*&***=*-*;*>*,*'*)*!*                ",
"                  ~*{*]*^*/*:%R&(*`%_*:*<*[*}*+*z&|*1*2*3*4*5*6*7*8*9*0*a*b*c*d*                ",
"                    e*f*g*h*i*j*k*l*m*n*o*p*q*r*s*t*u*v*w*x*y*z*A*B*C*D*E*F*G*H*                ",
"                      I*J*K*L*M*N*O*P*Q*R*S*T*%*U*V*W*X*Y*Z*`* =.=+=@=#=$=G%%=% % % %           ",
"                        &=*===-=;=>=,='=)=!=~=X*{=]=^=/=(=_=:=<=[=}=|=1=2=3=% % % % % % %       ",
"                          4=5=6=7=8=8=9=0=a=b=c=d=e=f=g=h=i=j=k=>*l=m=n=o=% % % % % % % % %     ",
"                            p=q=r=s=t=u=v=w=x=y=z=A=B=C=D=E=F=G=H=I=a*J=% % % % % % % % % %     ",
"                            % K=L=D=M=N=O=P=Q=R=S=T=B=U=V=V=W=X=Y=Z=`=% % % % % % % % % % %     ",
"                              %  -.-C=V=+-G%@-% % #-$-Q#%-&-*-m==---% % % % % % % % % % %       ",
"                              % % % % ;->-% % % % % % % % % % % % % % % % % % % % % %           ",
"                                  % % % % % % % % % % % % % % % % % % % % % % % %               ",
"                                        % % % % % % % % % % % % % % % % % % %                   ",
"                                                                                                ",
"                                                                                                ",
"                                                                                                "};
