/* XPM */
static char * gnome_term_linux_xpm[] = {
"48 48 552 2",
"  	c None",
". 	c #D7D7CF",
"+ 	c #EFEBDF",
"@ 	c #E7E7DF",
"# 	c #E7E3D7",
"$ 	c #DFDFD7",
"% 	c #DFDBD7",
"& 	c #DFD7CF",
"* 	c #D7D3C7",
"= 	c #D7CFC7",
"- 	c #CFCFC7",
"; 	c #CFCBBE",
"> 	c #CECABD",
", 	c #CCC4BB",
"' 	c #C3C3BA",
") 	c #C2BEB9",
"! 	c #C2B9B1",
"~ 	c #B9B9B1",
"{ 	c #B9B5B1",
"] 	c #BAB6AA",
"^ 	c #B6AEA7",
"/ 	c #9B9B94",
"( 	c #8F8C81",
"_ 	c #7D7A76",
": 	c #D5D1C7",
"< 	c #B0B0C8",
"[ 	c #57578F",
"} 	c #19182F",
"| 	c #010101",
"1 	c #080810",
"2 	c #2D2D56",
"3 	c #716FA7",
"4 	c #B6AEB0",
"5 	c #B6B6AE",
"6 	c #B8B4B0",
"7 	c #B7B3A7",
"8 	c #B7AFA7",
"9 	c #ADADA5",
"0 	c #A9A6A2",
"a 	c #A4A196",
"b 	c #83807C",
"c 	c #B6B2B6",
"d 	c #797979",
"e 	c #717571",
"f 	c #717171",
"g 	c #696D69",
"h 	c #696969",
"i 	c #616561",
"j 	c #4A4A76",
"k 	c #070719",
"l 	c #000000",
"m 	c #1B1B1B",
"n 	c #282828",
"o 	c #10113B",
"p 	c #3C3F55",
"q 	c #454545",
"r 	c #454145",
"s 	c #3D3D3D",
"t 	c #7C7C7C",
"u 	c #A39C95",
"v 	c #918A83",
"w 	c #8E8E8E",
"x 	c #C7C3C7",
"y 	c #9E9A9E",
"z 	c #969696",
"A 	c #8E8A8E",
"B 	c #868286",
"C 	c #868686",
"D 	c #676B6A",
"E 	c #15153B",
"F 	c #272727",
"G 	c #3D3D3E",
"H 	c #0A0A0A",
"I 	c #17174F",
"J 	c #413D47",
"K 	c #444144",
"L 	c #3D383D",
"M 	c #3C373C",
"N 	c #96938F",
"O 	c #B6B6B6",
"P 	c #E7E7E7",
"Q 	c #A6A6A6",
"R 	c #797D79",
"S 	c #575B6D",
"T 	c #030303",
"U 	c #050505",
"V 	c #010104",
"W 	c #34315C",
"X 	c #3C3C3C",
"Y 	c #3D393D",
"Z 	c #3C383C",
"` 	c #343434",
" .	c #9B9894",
"..	c #979489",
"+.	c #BEC3BE",
"@.	c #969296",
"#.	c #6C6992",
"$.	c #020202",
"%.	c #2B2B2B",
"&.	c #292929",
"*.	c #2E2E2E",
"=.	c #484848",
"-.	c #292966",
";.	c #3A353A",
">.	c #333333",
",.	c #323232",
"'.	c #9C988D",
").	c #909089",
"!.	c #B6BAB6",
"~.	c #616161",
"{.	c #595D59",
"].	c #494C6C",
"^.	c #161617",
"/.	c #818181",
"(.	c #0C0C0C",
"_.	c #222222",
":.	c #9C9C9C",
"<.	c #A0A0A0",
"[.	c #161650",
"}.	c #373337",
"|.	c #313131",
"1.	c #2B2F2B",
"2.	c #95958D",
"3.	c #908D89",
"4.	c #6B6E83",
"5.	c #2E2E30",
"6.	c #545554",
"7.	c #A19E95",
"8.	c #3C351B",
"9.	c #5E5842",
"0.	c #8B8A86",
"a.	c #BCBCBC",
"b.	c #090909",
"c.	c #111047",
"d.	c #2D2D2D",
"e.	c #282C28",
"f.	c #2A2A2A",
"g.	c #938F8B",
"h.	c #8F8C88",
"i.	c #595959",
"j.	c #4C5059",
"k.	c #18181B",
"l.	c #5B5341",
"m.	c #A08435",
"n.	c #A78A12",
"o.	c #A48E26",
"p.	c #928337",
"q.	c #453C10",
"r.	c #B0AB9B",
"s.	c #0B0B3C",
"t.	c #252825",
"u.	c #252525",
"v.	c #8E8A88",
"w.	c #8D867F",
"x.	c #E7DFD7",
"y.	c #67676B",
"z.	c #16100B",
"A.	c #B08931",
"B.	c #E1AC0B",
"C.	c #ECC70E",
"D.	c #E0C328",
"E.	c #DCC118",
"F.	c #B6A015",
"G.	c #BFA546",
"H.	c #040300",
"I.	c #090928",
"J.	c #202320",
"K.	c #212121",
"L.	c #1E211E",
"M.	c #878079",
"N.	c #85857E",
"O.	c #515551",
"P.	c #515151",
"Q.	c #1D150E",
"R.	c #B4820C",
"S.	c #F0BC0D",
"T.	c #EACA17",
"U.	c #D8BD21",
"V.	c #CBAC0D",
"W.	c #D5AB08",
"X.	c #C0951A",
"Y.	c #030200",
"Z.	c #1E1E1E",
"`.	c #06060F",
" +	c #1A1A34",
".+	c #1F1F1F",
"++	c #1A1D1A",
"@+	c #767670",
"#+	c #7C7976",
"$+	c #494D49",
"%+	c #1D1B2D",
"&+	c #AA925A",
"*+	c #C0920D",
"=+	c #CFA610",
"-+	c #C6970C",
";+	c #C29213",
">+	c #C5A552",
",+	c #C2B18A",
"'+	c #1C1C1C",
")+	c #39393A",
"!+	c #252526",
"~+	c #0D0D49",
"{+	c #171917",
"]+	c #181818",
"^+	c #191919",
"/+	c #6C6A66",
"(+	c #75736F",
"_+	c #4C4C75",
":+	c #21212C",
"<+	c #C6C2BB",
"[+	c #AD986A",
"}+	c #AF8E41",
"|+	c #B4914C",
"1+	c #C3AD80",
"2+	c #D7D0C4",
"3+	c #E8E8E7",
"4+	c #7D7D7D",
"5+	c #131313",
"6+	c #111111",
"7+	c #020215",
"8+	c #121238",
"9+	c #161616",
"0+	c #171417",
"a+	c #62605E",
"b+	c #6B6660",
"c+	c #DFDBCF",
"d+	c #434754",
"e+	c #151541",
"f+	c #69696A",
"g+	c #EBEBEB",
"h+	c #C6C4BF",
"i+	c #B7B0A4",
"j+	c #C7C1B7",
"k+	c #E4E3DF",
"l+	c #F0F0F0",
"m+	c #F5F5F5",
"n+	c #DEDEDE",
"o+	c #070738",
"p+	c #14121B",
"q+	c #5C5753",
"r+	c #5F5C5A",
"s+	c #1D1D57",
"t+	c #28282B",
"u+	c #DBDBDB",
"v+	c #F4F4F4",
"w+	c #ECECEC",
"x+	c #E5E5E5",
"y+	c #EDEDED",
"z+	c #757575",
"A+	c #000006",
"B+	c #080845",
"C+	c #101010",
"D+	c #53514F",
"E+	c #5A5855",
"F+	c #353572",
"G+	c #04040C",
"H+	c #737374",
"I+	c #F3F3F3",
"J+	c #EFEFEF",
"K+	c #F6F6F6",
"L+	c #F2F2F2",
"M+	c #C6C6C6",
"N+	c #01010E",
"O+	c #0A0943",
"P+	c #514F4D",
"Q+	c #575252",
"R+	c #3A3A61",
"S+	c #03030C",
"T+	c #040404",
"U+	c #A2A2A2",
"V+	c #E6E6E5",
"W+	c #DCDCDC",
"X+	c #CCCCCC",
"Y+	c #CDCDCD",
"Z+	c #4D4D4D",
"`+	c #0E0E0E",
" @	c #000011",
".@	c #44425F",
"+@	c #4F4F4B",
"@@	c #494949",
"#@	c #201E5C",
"$@	c #464647",
"%@	c #F7F7F7",
"&@	c #E3E3E3",
"*@	c #BBBBBB",
"=@	c #060606",
"-@	c #141314",
";@	c #1B1B51",
">@	c #4F4D4A",
",@	c #454150",
"'@	c #0A0A1E",
")@	c #121213",
"!@	c #CACACA",
"~@	c #5A5A5A",
"{@	c #282829",
"]@	c #141415",
"^@	c #03030B",
"/@	c #4B4958",
"(@	c #494549",
"_@	c #2C2A66",
":@	c #0F0F10",
"<@	c #535353",
"[@	c #999999",
"}@	c #0F0F0F",
"|@	c #2F2D69",
"1@	c #CFC7BE",
"2@	c #444151",
"3@	c #0E0E37",
"4@	c #B2B2B2",
"5@	c #B7B7B7",
"6@	c #070707",
"7@	c #080808",
"8@	c #161441",
"9@	c #C7C7BE",
"0@	c #5B5997",
"a@	c #070708",
"b@	c #121212",
"c@	c #E1E1E1",
"d@	c #E9EAE9",
"e@	c #F4F5F4",
"f@	c #CECECE",
"g@	c #000007",
"h@	c #C6C6BD",
"i@	c #C7C3B6",
"j@	c #959195",
"k@	c #484C48",
"l@	c #484448",
"m@	c #404040",
"n@	c #080824",
"o@	c #14120B",
"p@	c #E9E9E9",
"q@	c #EAEAEA",
"r@	c #D5D5D5",
"s@	c #010103",
"t@	c #00000E",
"u@	c #B3AFA3",
"v@	c #C3BFB2",
"w@	c #BABAB2",
"x@	c #BBB7B3",
"y@	c #BBB7AB",
"z@	c #BAB2AA",
"A@	c #B1B1A9",
"B@	c #B1ADA9",
"C@	c #B0ACA0",
"D@	c #AEAAA0",
"E@	c #493B2C",
"F@	c #6E5708",
"G@	c #534929",
"H@	c #D5D5D4",
"I@	c #F3ECD6",
"J@	c #CBC3A5",
"K@	c #070706",
"L@	c #0E0D18",
"M@	c #000001",
"N@	c #9B978C",
"O@	c #B2AEAA",
"P@	c #B2AEA3",
"Q@	c #A9A9A2",
"R@	c #A9A5A1",
"S@	c #A8A499",
"T@	c #A7A098",
"U@	c #8582A1",
"V@	c #BF8D26",
"W@	c #F0BD10",
"X@	c #AF8B0D",
"Y@	c #8D8464",
"Z@	c #C2C2C2",
"`@	c #EACC6B",
" #	c #CAAE3A",
".#	c #080705",
"+#	c #282314",
"@#	c #695B21",
"##	c #010111",
"$#	c #536B67",
"%#	c #888561",
"&#	c #9D9D96",
"*#	c #95929A",
"=#	c #868199",
"-#	c #7E7498",
";#	c #99785C",
">#	c #E8B00E",
",#	c #F0BD0F",
"'#	c #A2830A",
")#	c #504C41",
"!#	c #F1F1F1",
"~#	c #E4B224",
"{#	c #D8A80C",
"]#	c #372603",
"^#	c #120D00",
"/#	c #211601",
"(#	c #7B5C07",
"_#	c #E6BD0B",
":#	c #0A082C",
"<#	c #362747",
"[#	c #866B4C",
"}#	c #A97F33",
"|#	c #E4AB0E",
"1#	c #EFBA0F",
"2#	c #F0BC10",
"3#	c #EEBC10",
"4#	c #EABA0D",
"5#	c #675105",
"6#	c #858585",
"7#	c #D2D2D2",
"8#	c #D7A522",
"9#	c #DBA105",
"0#	c #9E6F03",
"a#	c #7C5703",
"b#	c #916804",
"c#	c #DCA70A",
"d#	c #F1BC0C",
"e#	c #463644",
"f#	c #000002",
"g#	c #966E31",
"h#	c #EEB70F",
"i#	c #F0BB0F",
"j#	c #EFBD10",
"k#	c #EEBD11",
"l#	c #F1BC0F",
"m#	c #CFA50A",
"n#	c #2E2202",
"o#	c #B1B1B1",
"p#	c #CDCCCC",
"q#	c #BD8B17",
"r#	c #E4AA05",
"s#	c #DDA307",
"t#	c #D9A009",
"u#	c #E3AA09",
"v#	c #EFBA0D",
"w#	c #F1BD10",
"x#	c #C79D21",
"y#	c #352A48",
"z#	c #000010",
"A#	c #515956",
"B#	c #7E7E77",
"C#	c #83837E",
"D#	c #A07B51",
"E#	c #EEB910",
"F#	c #F0BD11",
"G#	c #EFBC0D",
"H#	c #A48107",
"I#	c #5C584D",
"J#	c #66645F",
"K#	c #B17E09",
"L#	c #E8AE07",
"M#	c #EEB80D",
"N#	c #EFBA0E",
"O#	c #F1BD11",
"P#	c #CA9F23",
"Q#	c #6B5448",
"R#	c #586158",
"S#	c #858C85",
"T#	c #8B8B84",
"U#	c #A07A55",
"V#	c #EDB70F",
"W#	c #EFBD11",
"X#	c #EFBC10",
"Y#	c #EFBB0E",
"Z#	c #E2B50A",
"`#	c #B3964D",
" $	c #EFEFEE",
".$	c #1E180B",
"+$	c #B88205",
"@$	c #EBB209",
"#$	c #F0BC0E",
"$$	c #F0BC0F",
"%$	c #EEBA10",
"&$	c #785C45",
"*$	c #B98220",
"=$	c #E8AF0B",
"-$	c #EEB70C",
";$	c #F0BA0F",
">$	c #F1BE10",
",$	c #EFBC0F",
"'$	c #F1BD0F",
")$	c #E9B409",
"!$	c #BF8D12",
"~$	c #71695A",
"{$	c #9A9A9A",
"]$	c #A7A7A7",
"^$	c #959595",
"/$	c #7B7B7B",
"($	c #4F4F4F",
"_$	c #221600",
":$	c #BF8804",
"<$	c #EBB409",
"[$	c #EFBD0F",
"}$	c #ECB710",
"|$	c #A57D2F",
"1$	c #37294F",
"2$	c #06042C",
"3$	c #5E414B",
"4$	c #AE7B17",
"5$	c #CA9009",
"6$	c #D49A09",
"7$	c #DAA009",
"8$	c #E2AA0B",
"9$	c #EBB40C",
"0$	c #F0BA0E",
"a$	c #F1B90E",
"b$	c #E1A909",
"c$	c #B07A06",
"d$	c #382808",
"e$	c #151515",
"f$	c #2B1C00",
"g$	c #B67D03",
"h$	c #E0A606",
"i$	c #ECB50C",
"j$	c #EBB30B",
"k$	c #E4AA0C",
"l$	c #BE8A17",
"m$	c #34264D",
"n$	c #050428",
"o$	c #04022D",
"p$	c #0F0A46",
"q$	c #32224D",
"r$	c #604134",
"s$	c #906214",
"t$	c #B57F08",
"u$	c #C78E08",
"v$	c #B17907",
"w$	c #805303",
"x$	c #150D2E",
"y$	c #000045",
"z$	c #000043",
"A$	c #000042",
"B$	c #000044",
"C$	c #000047",
"D$	c #160F3B",
"E$	c #956204",
"F$	c #BD8305",
"G$	c #CB9105",
"H$	c #C48A05",
"I$	c #7B5527",
"J$	c #0A073C",
"K$	c #00000F",
"L$	c #000018",
"M$	c #0C0846",
"N$	c #402A3F",
"O$	c #6F4A0F",
"P$	c #603F10",
"Q$	c #160F4B",
"R$	c #00000D",
"S$	c #000008",
"T$	c #000005",
"U$	c #000004",
"V$	c #000028",
"W$	c #352337",
"X$	c #764E04",
"Y$	c #7C5309",
"Z$	c #432C3F",
"`$	c #02012C",
"                                                                                                ",
"                                                                                                ",
"                                                                                                ",
"                                                                                                ",
"                                                                                                ",
"                                                                                                ",
"                                                                                                ",
"                                                                                                ",
"                                                                                                ",
"                . + + + + + @ @ # # $ $ % & . . * = - ; > , ' ) ! ~ { ] ^ / ( _                 ",
"              . + + + + + @ @ # # $ $ % & . . : < [ } | 1 2 3 4 5 6 7 8 9 0 a b                 ",
"              + + c d d d d d d e e f g g h i j k l l l l m n o p q r r s t u v l               ",
"              + + d w x y z A B C w B e e f D E l l l l l F G H I J K s L M u N l l             ",
"              + + A O P O Q B R d d e e h i S l | T l l | H U l V W X Y Z `  ...l l             ",
"              + + d Q +.z C @.@.g R z z z e #.$.%.&.| T *.=.&.l l -.;.M >.,.'.).l l             ",
"              + @ d Q !.e e B g g h i i ~.{.].^./.C (._.:.<.t $.l [.}.|.,.1.2.3.l l             ",
"              @ @ d y @.C B R w A z e @.f {.4.5.6.7.8.9.0.X a.b.l c.d.*.e.f.g.h.l l             ",
"              # # d A w f g g h i i ~.{.{.i.j.k.l.m.n.o.p.q.r.b.l s.&.t.u.n v.w.l l l           ",
"              # x.C z @.y w d z e e B g R d y.z.A.B.C.D.E.F.G.H.l I.J.K._.L.M.N.l l l           ",
"              x.$ f C d g h i i ~.{.{.i.O.O.P.Q.R.S.T.U.V.W.X.Y.Z.`. +.+++m @+#+l l l           ",
"              $ % f d g d i i ~.{.{.i.O.O.P.$+%+&+*+=+-+;+>+,+'+)+!+~+{+]+^+/+(+l l l           ",
"              % $ R C h C e @.f g w h h C e _+:+<+[+}+|+1+2+3+4+5+6+7+8+9+0+a+b+l l l           ",
"              c+. g e i i ~.{.{.i.O.O.P.$+d+e+f+g+h+i+j+k+l+m+n+.+l l o+p+6+q+r+l l l           ",
"              . . h f i ~.{.{.g h h P.$+~.s+t+u+v+w+x+y+m+v+v+v+z+l l A+B+C+D+E+l l l           ",
"              . * i g ~.B g R h h d e ~.F+G+H+I+v+v+J+m+K+v+L+g+M+| l l N+O+P+Q+l l l           ",
"              * = i ~.~.{.i.O.O.P.$+$+R+S+T+U+V+v+L+y+m+K+w+W+X+Y+Z+`+U l  @.@+@l l l           ",
"              = - ~.{.{.i.O.O.P.$+$+@@#@6+$@w+m+v+m+m+m+%@m+m+v+&@*@=@-@T+l ;@>@l l l           ",
"              - ; {.{.i.O.O.P.P.$+@@,@'@)@!@v+v+v+m+v+v+K+v+v+v+v+y+~@{@]@l ^@/@l l l           ",
"              ; ; {.i.O.O.P.$+$+@@(@_@:@<@m+v+m+v+l+m+m+K+v+m+v+m+v+[@T+}@T+l |@l l l           ",
"              ; 1@i.O.O.P.P.$+@@(@2@3@(.4@m+v+m+v+y+m+m+K+v+m+v+m+v+5@l 6@7@l 8@l l l           ",
"              1@9@O.O.A @.@.B w R 0@a@b@c@v+m+m+v+d@m+v+K+m+m+e@m+m+f@l (.| l ^@g@l l           ",
"              h@i@j@P.k@k@=.l@l@m@n@o@n p@m+v+m+v+q@v+m+K+v+m+v+m+v+r@$.}@T+$.s@t@l l           ",
"              u@v@w@x@y@z@A@B@C@D@E@F@G@H@m+m+m+m+w+m+m+K+m+m+m+m+I@J@K@H 7@:@L@M@l l           ",
"                N@O@P@Q@Q@R@S@T@U@V@W@X@Y@Z@m+m+m+y+m+m+K+m+m+m+m+`@ #.#l l +#@###l l           ",
"                  $#%#&#&#*#=#-#;#>#W@,#'#)#Q !#m+L+m+m+K+m+m+m+P ~#{#]#^#/#(#_#:#l l           ",
"                    l l l <#[#}#|#1#2#3#4#5#F 6#P m+v+v+K+v+v+v+7#8#9#0#a#b#c#d#e#f#l l         ",
"                      l l g#h#1#i#W@j#k#l#m#n#b@o#m+v+m+K+m+v+v+p#q#r#s#t#u#v#w#x#y#z#l         ",
"                    A#B#C#D#E#W@2#W@j#F#2#G#H#I#X+m+v+m+K+m+v+c@J#K#L#M#M#N#,#O#w#P#Q#l         ",
"                    R#S#T#U#V#2#2#W@W#j#X#Y#Z#`# $v+v+v+K+I+o#=..$+$@$,##$$$,#2#W@%$&$l         ",
"                          *$=$-$;$w#>$,$$$'$)$!$~${$]$^$/$($K.$._$:$<$[$,#F#$$}$|$1$2$          ",
"                          3$4$5$6$7$8$9$0$a$b$c$d$e$]+5+`+U l l f$g$h$i$j$k$l$m$n$z#l           ",
"                            o$p$q$r$s$t$u$u$v$w$x$y$z$A$z$B$B$C$D$E$F$G$H$I$J$K$l l             ",
"                                   @L$M$N$O$P$Q$R$S$T$U$U$U$T$g@V$W$X$Y$Z$`$M@l                 ",
"                                          l l l l l                                             ",
"                                                                                                ",
"                                                                                                ",
"                                                                                                ",
"                                                                                                "};
