/* XPM */
static char * gnome_term_xpm[] = {
"48 48 320 2",
"  	c None",
". 	c #D7D7CF",
"+ 	c #EFEBDF",
"@ 	c #E7E7DF",
"# 	c #E7E3D7",
"$ 	c #DFDFD7",
"% 	c #DFDBD7",
"& 	c #DFD7CF",
"* 	c #D7D3C7",
"= 	c #D7CFC7",
"- 	c #CFCFC7",
"; 	c #CFCBBE",
"> 	c #CFC7BE",
", 	c #C7C7BE",
"' 	c #C7C3BE",
") 	c #C7BEB6",
"! 	c #BDBDB5",
"~ 	c #BCB8B4",
"{ 	c #BBB7AB",
"] 	c #B6AEA7",
"^ 	c #9B9B94",
"/ 	c #8F8C81",
"( 	c #7D7A76",
"_ 	c #BEBEB6",
": 	c #BEBAB6",
"< 	c #BCB8AC",
"[ 	c #B9B1A9",
"} 	c #AEAEA6",
"| 	c #A9A6A2",
"1 	c #A4A196",
"2 	c #83807C",
"3 	c #B6B2B6",
"4 	c #797979",
"5 	c #717571",
"6 	c #717171",
"7 	c #696D69",
"8 	c #696969",
"9 	c #616561",
"0 	c #616161",
"a 	c #595D59",
"b 	c #595959",
"c 	c #515551",
"d 	c #515151",
"e 	c #494D49",
"f 	c #494949",
"g 	c #484448",
"h 	c #474347",
"i 	c #3E3E3E",
"j 	c #7C7C7C",
"k 	c #A39C95",
"l 	c #918A83",
"m 	c #000000",
"n 	c #8E8E8E",
"o 	c #C7C3C7",
"p 	c #9E9A9E",
"q 	c #969696",
"r 	c #8E8A8E",
"s 	c #868286",
"t 	c #868686",
"u 	c #494549",
"v 	c #3F3F3F",
"w 	c #3E393E",
"x 	c #3C373C",
"y 	c #96938F",
"z 	c #B6B6B6",
"A 	c #E7E7E7",
"B 	c #A6A6A6",
"C 	c #797D79",
"D 	c #404040",
"E 	c #3F3B3F",
"F 	c #3D393D",
"G 	c #343434",
"H 	c #9B9894",
"I 	c #979489",
"J 	c #BEC3BE",
"K 	c #969296",
"L 	c #9E9E9E",
"M 	c #585858",
"N 	c #403B40",
"O 	c #3F3A3F",
"P 	c #353535",
"Q 	c #333333",
"R 	c #9C988D",
"S 	c #909089",
"T 	c #B6BAB6",
"U 	c #414141",
"V 	c #363636",
"W 	c #2C302C",
"X 	c #95958D",
"Y 	c #908D89",
"Z 	c #413C41",
"` 	c #373737",
" .	c #2D312D",
"..	c #2C2C2C",
"+.	c #95918D",
"@.	c #8F8C88",
"#.	c #2F332F",
"$.	c #2D2D2D",
"%.	c #94908D",
"&.	c #8F8881",
"*.	c #E7DFD7",
"=.	c #505050",
"-.	c #2F2F2F",
";.	c #252825",
">.	c #958D86",
",.	c #898982",
"'.	c #383838",
").	c #303430",
"!.	c #262A26",
"~.	c #252525",
"{.	c #8D8D86",
"].	c #898682",
"^.	c #303030",
"/.	c #272A27",
"(.	c #262626",
"_.	c #8D8A86",
":.	c #272B27",
"<.	c #272727",
"[.	c #252125",
"}.	c #88827B",
"|.	c #DFDBCF",
"1.	c #262226",
"2.	c #1D1D1D",
"3.	c #8D867F",
"4.	c #827E7B",
"5.	c #282C28",
"6.	c #282828",
"7.	c #272327",
"8.	c #1E1E1E",
"9.	c #86837F",
"0.	c #827F7B",
"a.	c #1F1F1F",
"b.	c #1D1A1D",
"c.	c #827B7B",
"d.	c #1E1A1E",
"e.	c #161616",
"f.	c #86827E",
"g.	c #7B7B74",
"h.	c #282428",
"i.	c #1F1B1F",
"j.	c #7E7E77",
"k.	c #7A7773",
"l.	c #202020",
"m.	c #171717",
"n.	c #161216",
"o.	c #7E7A77",
"p.	c #7B7774",
"q.	c #0E0E0E",
"r.	c #7D7976",
"s.	c #797373",
"t.	c #201C20",
"u.	c #171317",
"v.	c #7C7575",
"w.	c #797272",
"x.	c #717971",
"y.	c #848084",
"z.	c #6E6E6E",
"A.	c #807C80",
"B.	c #525252",
"C.	c #0E0A0E",
"D.	c #7B7474",
"E.	c #C6C6BD",
"F.	c #C7C3B6",
"G.	c #959195",
"H.	c #484C48",
"I.	c #484848",
"J.	c #0D0A0D",
"K.	c #555955",
"L.	c #7A7373",
"M.	c #787171",
"N.	c #B3AFA3",
"O.	c #C3BFB2",
"P.	c #BABAB2",
"Q.	c #BBB7B3",
"R.	c #BAB2AA",
"S.	c #B1B1A9",
"T.	c #B1ADA9",
"U.	c #B0ACA0",
"V.	c #A8A8A0",
"W.	c #A9A5A1",
"X.	c #A9A199",
"Y.	c #A19D99",
"Z.	c #A29E9A",
"`.	c #A09991",
" +	c #999591",
".+	c #9A9692",
"++	c #918D8A",
"@+	c #918A8A",
"#+	c #898981",
"$+	c #87837F",
"%+	c #85817D",
"&+	c #817A7A",
"*+	c #7D7676",
"=+	c #767070",
"-+	c #64645D",
";+	c #9B978C",
">+	c #B2AEAA",
",+	c #B2AEA3",
"'+	c #A9A9A2",
")+	c #A8A499",
"!+	c #A7A098",
"~+	c #9F9F98",
"{+	c #AF7B6F",
"]+	c #A78A82",
"^+	c #A19992",
"/+	c #918D82",
"(+	c #A76F68",
"_+	c #997C6F",
":+	c #91918A",
"<+	c #98918A",
"[+	c #9F6B60",
"}+	c #987B6F",
"|+	c #8A8682",
"1+	c #928A8A",
"2+	c #6F6F68",
"3+	c #83837C",
"4+	c #899458",
"5+	c #96BB23",
"6+	c #8A9B3F",
"7+	c #766F6F",
"8+	c #726B6B",
"9+	c #5F5F59",
"0+	c #585852",
"a+	c #536B67",
"b+	c #888561",
"c+	c #9D9D96",
"d+	c #9D9A96",
"e+	c #9C988E",
"f+	c #9D968F",
"g+	c #94948D",
"h+	c #96928F",
"i+	c #95928E",
"j+	c #8F8F88",
"k+	c #8E8B87",
"l+	c #8E8780",
"m+	c #888481",
"n+	c #86827F",
"o+	c #888181",
"p+	c #878080",
"q+	c #817D7A",
"r+	c #807D79",
"s+	c #807979",
"t+	c #7A7A73",
"u+	c #75726E",
"v+	c #73706C",
"w+	c #6E6868",
"x+	c #6D6767",
"y+	c #5A5A53",
"z+	c #415252",
"A+	c #415353",
"B+	c #414441",
"C+	c #41413B",
"D+	c #4D4D47",
"E+	c #726F6C",
"F+	c #726D61",
"G+	c #4E4E48",
"H+	c #5C5C55",
"I+	c #79766D",
"J+	c #79796D",
"K+	c #5B5B54",
"L+	c #6C655B",
"M+	c #78786C",
"N+	c #72726C",
"O+	c #55554E",
"P+	c #5C5855",
"Q+	c #4E4A48",
"R+	c #53504D",
"S+	c #524F4B",
"T+	c #4B4B45",
"U+	c #52524C",
"V+	c #525652",
"W+	c #69695F",
"X+	c #696259",
"Y+	c #535653",
"Z+	c #5F5C52",
"`+	c #706960",
" @	c #706A6A",
".@	c #595952",
"+@	c #5D5F57",
"@@	c #515956",
"#@	c #7F7F78",
"$@	c #85857F",
"%@	c #938F85",
"&@	c #928B84",
"*@	c #8D8D87",
"=@	c #8D8986",
"-@	c #8D8B80",
";@	c #86867F",
">@	c #878480",
",@	c #867F79",
"'@	c #7E7C78",
")@	c #807C79",
"!@	c #7F7979",
"~@	c #797773",
"{@	c #797673",
"]@	c #79736D",
"^@	c #73736D",
"/@	c #6E6C68",
"(@	c #696663",
"_@	c #5E5E55",
":@	c #605F58",
"<@	c #54504C",
"[@	c #596259",
"}@	c #878E87",
"|@	c #8E8E87",
"1@	c #9C998F",
"2@	c #9A938D",
"3@	c #95958F",
"4@	c #949287",
"5@	c #969389",
"6@	c #8F8B88",
"7@	c #8E8B80",
"8@	c #898282",
"9@	c #817A73",
"0@	c #797972",
"a@	c #76736F",
"b@	c #6F6B69",
"c@	c #6E6C63",
"d@	c #55514C",
"e@	c #56524E",
"                                                                                                ",
"                                                                                                ",
"                                                                                                ",
"                                                                                                ",
"                                                                                                ",
"                                                                                                ",
"                                                                                                ",
"                                                                                                ",
"                                                                                                ",
"                . + + + + + @ @ # # $ $ % & . . * = - ; ; > , ' ) ! ~ { ] ^ / (                 ",
"              . + + + + + @ @ # # $ $ % & . . * - - ; ; > , ' ) _ : < [ } | 1 2                 ",
"              + + 3 4 4 4 4 4 4 5 5 6 7 7 8 9 0 0 a a b b c d e e f g h i j k l m               ",
"              + + 4 n o p q r s t n s 5 5 6 7 7 0 0 0 d e e f u f g g v w x k y m m             ",
"              + + r z A z B s C 4 4 5 5 8 9 9 0 b b b c d e e f u g D E F G H I m m             ",
"              + + 4 B J q t K K 7 C q q q 5 s n C 8 r t L 0 a n b M N O P Q R S m m             ",
"              + @ 4 B T 5 5 s 7 7 8 9 9 0 a a b c c d d e f u u U U N V P W X Y m m             ",
"              @ @ 4 p K t s C n r q 5 K 6 a C c c 4 e 0 a u u U Z Z ` V  ...+.@.m m             ",
"              # # 4 r n 6 7 7 8 9 9 0 a a b c c d d e f u u U Z Z ` ` #.$...%.&.m m m           ",
"              # *.t q K p n 4 q 5 5 s 7 C 4 8 d 5 6 a a b 7 4 9 d =.#.-.$.;.>.,.m m m           ",
"              *.$ 6 t 4 7 8 9 9 0 a a b c c d e e f u u U Z Z '.'.).-.-.!.~.{.].m m m           ",
"              $ % 6 4 7 4 9 9 0 a a b c c d e e f u u U Z Z '.'.).^.-./.(.~._.].m m m           ",
"              % $ C t 8 t 5 K 6 7 n 8 8 t 5 0 s a b 8 c 8 d 0 ).0 -.:.<.(.[._.}.m m m           ",
"              |.. 7 5 9 9 0 a a b c c d e e f u u U U Z '.'.).^.^.:.<.<.1.2.3.4.m m m           ",
"              . . 8 6 9 0 a a 7 8 8 d e 0 f u u U Z Z '.'.).^.^.5.6.<.7.8.2.9.0.m m m           ",
"              . * 9 7 0 s 7 C 8 8 4 5 0 0 7 7 b 8 8 9 0 e f ^.5.6.6.7.a.8.b.9.c.m m m           ",
"              * = 9 0 0 a b c c d e e f u u U Z Z '.'.).^.^.5.6.6.7.a.a.d.e.f.g.m m m           ",
"              = - 0 a a b c c d e e f u u U Z Z '.'.).^.^.5.6.6.h.a.a.i.e.e.j.k.m m m           ",
"              - ; a a b c c d d e f u u U Z Z '.'.).^.^.5.6.6.h.l.a.i.m.e.n.o.p.m m m           ",
"              ; ; a b c c d e e f u u U Z Z '.'.).^.^.5.6.6.h.l.l.i.m.m.n.q.r.s.m m m           ",
"              ; > b c c d d e f u u U Z Z '.'.).^.^.5.6.6.h.l.l.t.m.m.u.q.q.v.w.m m m           ",
"              > , c c r K K s n C p r 4 q 5 s L 6 7 n 8 4 r t x.t y.z.A.B.C.D.w.m m m           ",
"              E.F.G.d H.H.I.g g D N N ` ` #.-.-.:.<.<.7.7.a.i.m.e.n.q.q.J.K.L.M.m m m           ",
"              N.O.P.Q.{ R.S.T.U.U.V.| W.X.Y.Y.Z.`. + +.+++++++@+#+$+%+&+*+L.=+-+m m m           ",
"                ;+>+,+'+'+W.)+!+~+{+]+^+/+(+_+:+<+[+}+|+1+0.2+3+4+5+6+w.7+8+9+0+m m m           ",
"                  a+b+c+c+d+e+f+g+h+i+j+k+k+@.l+m+n+o+p+q+r+s+t+u+v+w+x+y+z+A+m m m m           ",
"                    m m m m B+C+D+E+F+G+H+I+J+K+L+M+N+O+P+H+Q+R+m m m m m m m m m m m           ",
"                      m m m S+T+9+9+U+U+9+9+V+9+W+X+Y+Z+`+ @.@+@m m m m m m m m m m m           ",
"                    @@#@$@%@&@*@=@-@;@>@9.9.,@'@)@!@~@{@k.]@^@/@(@_@:@<@m m m m m m             ",
"                    [@}@|@1@2@3@4@5@|@|@6@7@&.9.m+p+8@r+r+9@0@a@b@c@d@e@m m m m m               ",
"                          m m m m m m m m m m m m m m m m m m m m m m m m m m                   ",
"                            m m m m m m m m m m m m m m m m m m m m m m m                       ",
"                                  m m m m m m m m m m m m m m m                                 ",
"                                                                                                ",
"                                                                                                ",
"                                                                                                ",
"                                                                                                ",
"                                                                                                ",
"                                                                                                "};
