/* XPM */
static char * gnome_term_apple_xpm[] = {
"48 48 252 2",
"  	c None",
". 	c #D7D7CF",
"+ 	c #EFEBDF",
"@ 	c #E7E7DF",
"# 	c #E7E3D7",
"$ 	c #DFDFD7",
"% 	c #DFDBD7",
"& 	c #DFD7CF",
"* 	c #D7D3C7",
"= 	c #D7CFC7",
"- 	c #CFCFC7",
"; 	c #CFCBBE",
"> 	c #CFC7BE",
", 	c #C7C7BE",
"' 	c #C7C3BE",
") 	c #C7BEB6",
"! 	c #BDBDB5",
"~ 	c #BCB8B4",
"{ 	c #BBB7AB",
"] 	c #B6AEA7",
"^ 	c #9B9B94",
"/ 	c #8F8C81",
"( 	c #7D7A76",
"_ 	c #BEBEB6",
": 	c #BEBAB6",
"< 	c #BCB8AC",
"[ 	c #B9B1A9",
"} 	c #AEAEA6",
"| 	c #A9A6A2",
"1 	c #A4A196",
"2 	c #83807C",
"3 	c #B6B2B6",
"4 	c #797979",
"5 	c #717571",
"6 	c #717171",
"7 	c #696D69",
"8 	c #696969",
"9 	c #616561",
"0 	c #616161",
"a 	c #595D59",
"b 	c #595959",
"c 	c #515551",
"d 	c #515151",
"e 	c #494D49",
"f 	c #494949",
"g 	c #484448",
"h 	c #474347",
"i 	c #3E3E3E",
"j 	c #7C7C7C",
"k 	c #A39C95",
"l 	c #918A83",
"m 	c #000000",
"n 	c #8E8E8E",
"o 	c #C7C3C7",
"p 	c #9E9A9E",
"q 	c #969696",
"r 	c #8E8A8E",
"s 	c #868286",
"t 	c #868686",
"u 	c #494549",
"v 	c #3F3F3F",
"w 	c #3E393E",
"x 	c #3C373C",
"y 	c #96938F",
"z 	c #B6B6B6",
"A 	c #E7E7E7",
"B 	c #A6A6A6",
"C 	c #797D79",
"D 	c #404040",
"E 	c #3F3B3F",
"F 	c #3D393D",
"G 	c #343434",
"H 	c #9B9894",
"I 	c #979489",
"J 	c #BEC3BE",
"K 	c #969296",
"L 	c #9E9E9E",
"M 	c #585858",
"N 	c #403B40",
"O 	c #3F3A3F",
"P 	c #353535",
"Q 	c #333333",
"R 	c #9C988D",
"S 	c #909089",
"T 	c #B6BAB6",
"U 	c #414141",
"V 	c #363636",
"W 	c #2C302C",
"X 	c #95958D",
"Y 	c #908D89",
"Z 	c #413C41",
"` 	c #373737",
" .	c #2D312D",
"..	c #2C2C2C",
"+.	c #95918D",
"@.	c #8F8C88",
"#.	c #2F332F",
"$.	c #2D2D2D",
"%.	c #94908D",
"&.	c #8F8881",
"*.	c #E7DFD7",
"=.	c #505050",
"-.	c #2F2F2F",
";.	c #252825",
">.	c #958D86",
",.	c #898982",
"'.	c #383838",
").	c #303430",
"!.	c #262A26",
"~.	c #252525",
"{.	c #8D8D86",
"].	c #898682",
"^.	c #303030",
"/.	c #272A27",
"(.	c #3C9E3C",
"_.	c #272B27",
":.	c #88827B",
"<.	c #DFDBCF",
"[.	c #272727",
"}.	c #827E7B",
"|.	c #282C28",
"1.	c #282828",
"2.	c #86837F",
"3.	c #827F7B",
"4.	c #272327",
"5.	c #1E1E1E",
"6.	c #1D1A1D",
"7.	c #1F1F1F",
"8.	c #1E1A1E",
"9.	c #FFFF00",
"0.	c #C6C6BD",
"a.	c #C7C3B6",
"b.	c #959195",
"c.	c #484C48",
"d.	c #484848",
"e.	c #E7AD73",
"f.	c #E7AC73",
"g.	c #E6AC72",
"h.	c #E5AB71",
"i.	c #E4AA70",
"j.	c #ECB278",
"k.	c #F0B57B",
"l.	c #E3A96F",
"m.	c #B3AFA3",
"n.	c #C3BFB2",
"o.	c #BABAB2",
"p.	c #BBB7B3",
"q.	c #BAB2AA",
"r.	c #B1B1A9",
"s.	c #B1ADA9",
"t.	c #B0ACA0",
"u.	c #A8A8A0",
"v.	c #A9A5A1",
"w.	c #A9A199",
"x.	c #A19D99",
"y.	c #A29E9A",
"z.	c #A09991",
"A.	c #F3B97F",
"B.	c #F2B87E",
"C.	c #F2B87D",
"D.	c #F1B77D",
"E.	c #F1B67C",
"F.	c #F0B67C",
"G.	c #EFB57B",
"H.	c #EDB479",
"I.	c #9B978C",
"J.	c #B2AEAA",
"K.	c #B2AEA3",
"L.	c #A9A9A2",
"M.	c #A8A499",
"N.	c #A7A098",
"O.	c #9F9F98",
"P.	c #AF7B6F",
"Q.	c #A78A82",
"R.	c #A19992",
"S.	c #918D82",
"T.	c #A76F68",
"U.	c #997C6F",
"V.	c #91918A",
"W.	c #98918A",
"X.	c #F4B479",
"Y.	c #F3B67B",
"Z.	c #F2B77D",
"`.	c #F3B87E",
" +	c #F1B77C",
".+	c #EFB57A",
"++	c #F2B978",
"@+	c #F3BD73",
"#+	c #F2BA76",
"$+	c #EFB47B",
"%+	c #EDB379",
"&+	c #536B67",
"*+	c #888561",
"=+	c #9D9D96",
"-+	c #9D9A96",
";+	c #9C988E",
">+	c #9D968F",
",+	c #94948D",
"'+	c #96928F",
")+	c #95928E",
"!+	c #8F8F88",
"~+	c #8E8B87",
"{+	c #8E8780",
"]+	c #888481",
"^+	c #FF0000",
"/+	c #414441",
"(+	c #41413B",
"_+	c #4D4D47",
":+	c #726F6C",
"<+	c #726D61",
"[+	c #4E4E48",
"}+	c #5C5C55",
"|+	c #79766D",
"1+	c #79796D",
"2+	c #5B5B54",
"3+	c #6C655B",
"4+	c #78786C",
"5+	c #524F4B",
"6+	c #4B4B45",
"7+	c #5F5F59",
"8+	c #52524C",
"9+	c #525652",
"0+	c #69695F",
"a+	c #696259",
"b+	c #515956",
"c+	c #7F7F78",
"d+	c #85857F",
"e+	c #938F85",
"f+	c #928B84",
"g+	c #8D8D87",
"h+	c #8D8986",
"i+	c #8D8B80",
"j+	c #86867F",
"k+	c #878480",
"l+	c #867F79",
"m+	c #7E7C78",
"n+	c #807C79",
"o+	c #7F7979",
"p+	c #7D3CBE",
"q+	c #596259",
"r+	c #878E87",
"s+	c #8E8E87",
"t+	c #9C998F",
"u+	c #9A938D",
"v+	c #95958F",
"w+	c #949287",
"x+	c #969389",
"y+	c #8F8B88",
"z+	c #8E8B80",
"A+	c #878080",
"B+	c #898282",
"C+	c #0000FF",
"                                                                                                ",
"                                                                                                ",
"                                                                                                ",
"                                                                                                ",
"                                                                                                ",
"                                                                                                ",
"                                                                                                ",
"                                                                                                ",
"                                                                                                ",
"                . + + + + + @ @ # # $ $ % & . . * = - ; ; > , ' ) ! ~ { ] ^ / (                 ",
"              . + + + + + @ @ # # $ $ % & . . * - - ; ; > , ' ) _ : < [ } | 1 2                 ",
"              + + 3 4 4 4 4 4 4 5 5 6 7 7 8 9 0 0 a a b b c d e e f g h i j k l m               ",
"              + + 4 n o p q r s t n s 5 5 6 7 7 0 0 0 d e e f u f g g v w x k y m m             ",
"              + + r z A z B s C 4 4 5 5 8 9 9 0 b b b c d e e f u g D E F G H I m m             ",
"              + + 4 B J q t K K 7 C q q q 5 s n C 8 r t L 0 a n b M N O P Q R S m m             ",
"              + @ 4 B T 5 5 s 7 7 8 9 9 0 a a b c c d d e f u u U U N V P W X Y m m             ",
"              @ @ 4 p K t s C n r q 5 K 6 a C c c 4 e 0 a u u U Z Z ` V  ...+.@.m m             ",
"              # # 4 r n 6 7 7 8 9 9 0 a a b c c d d e f u u U Z Z ` ` #.$...%.&.m m m           ",
"              # *.t q K p n 4 q 5 5 s 7 C 4 8 d 5 6 a a b 7 4 9 d =.#.-.$.;.>.,.m m m           ",
"              *.$ 6 t 4 7 8 9 9 0 a a b c c d e e f u u U Z Z '.'.).-.-.!.~.{.].m m m           ",
"              $ % 6 4 7 4 9 9 0 a a b c c d e e f u u U Z Z '.'.).^.-./.(.(.(.(.m m m           ",
"              % $ C t 8 t 5 K 6 7 n 8 8 t 5 0 s a b 8 c 8 d 0 ).0 -._.(.(.(.(.:.m m m           ",
"              <.. 7 5 9 9 0 a a b c c d e e f u u U U Z '.'.).^.^._.[.(.(.(.(.}.m m m           ",
"              . . 8 6 9 0 a a 7 8 8 d e 0 f u u U Z Z '.'.).^.^.|.1.[.(.(.(.2.3.m m m           ",
"              . * 9 7 0 s 7 C 8 8 4 5 0 0 7 7 b 8 8 9 0 e (.(.|.1.1.4.(.5.6.2.(.(.m m           ",
"              * = 9 0 0 a b c c d e e f u u U Z Z '.'.(.(.(.(.(.(.4.7.7.8.(.(.(.(.(.(.          ",
"              = - 0 a a b c c d e e f u u U Z Z '.'.(.(.(.(.(.(.(.(.(.(.(.(.(.(.(.(.(.(.        ",
"              - ; a a b c c d d e f u u U Z Z '.'.).(.(.(.(.(.(.(.(.(.(.(.(.(.(.(.(.(.(.        ",
"              ; ; a b c c d e e f u u U Z Z '.'.).9.9.9.9.9.9.9.9.9.9.9.9.9.9.9.9.9.m           ",
"              ; > b c c d d e f u u U Z Z '.'.).^.9.9.9.9.9.9.9.9.9.9.9.9.9.9.9.9.m m           ",
"              > , c c r K K s n C p r 4 q 5 s L 6 9.9.9.9.9.9.9.9.9.9.9.9.9.9.9.9.m m           ",
"              0.a.b.d c.c.d.g g D N N ` ` #.-.-._.e.e.f.f.g.g.h.h.h.i.i.i.j.k.k.l.m m           ",
"              m.n.o.p.{ q.r.s.t.t.u.| v.w.x.x.y.z.A.A.A.B.B.B.B.C.D.D.E.F.k.G.H.l.m m           ",
"                I.J.K.L.L.v.M.N.O.P.Q.R.S.T.U.V.W.X.Y.Z.`. +.+ +++@+#+k.G.$+%+j.l.m m           ",
"                  &+*+=+=+-+;+>+,+'+)+!+~+~+@.{+]+^+^+^+^+^+^+^+^+^+^+^+^+^+^+^+^+^+m           ",
"                    m m m m /+(+_+:+<+[+}+|+1+2+3+4+^+^+^+^+^+^+^+^+^+^+^+^+^+^+^+^+^+          ",
"                      m m m 5+6+7+7+8+8+7+7+9+7+0+a+^+^+^+^+^+^+^+^+^+^+^+^+^+^+^+^+^+^+        ",
"                    b+c+d+e+f+g+h+i+j+k+2.2.l+m+n+o+p+p+p+p+p+p+p+p+p+p+p+p+p+p+p+p+p+          ",
"                    q+r+s+t+u+v+w+x+s+s+y+z+&.2.]+A+B+p+p+p+p+p+p+p+p+p+p+p+p+p+p+p+p+          ",
"                          m m m m m m m m m m m m m m p+p+p+p+p+p+p+p+p+p+p+p+p+p+p+            ",
"                            m m m m m m m m m m m m m m C+C+C+C+C+C+C+C+C+C+C+C+C+C+            ",
"                                  m m m m m m m m m m m m C+C+C+C+C+C+C+C+C+C+C+C+              ",
"                                                              C+C+        C+C+                  ",
"                                                                                                ",
"                                                                                                ",
"                                                                                                ",
"                                                                                                ",
"                                                                                                "};
