/* XPM */
static char * gnome_term_windows_xpm[] = {
"48 48 208 2",
"  	c None",
". 	c #D7D7CF",
"+ 	c #EFEBDF",
"@ 	c #E7E7DF",
"# 	c #E7E3D7",
"$ 	c #DFDFD7",
"% 	c #DFDBD7",
"& 	c #DFD7CF",
"* 	c #D7D3C7",
"= 	c #D7CFC7",
"- 	c #CFCFC7",
"; 	c #CFCBBE",
"> 	c #CFC7BE",
", 	c #C7C7BE",
"' 	c #C7C3BE",
") 	c #C7BEB6",
"! 	c #BDBDB5",
"~ 	c #BCB8B4",
"{ 	c #BBB7AB",
"] 	c #B6AEA7",
"^ 	c #9B9B94",
"/ 	c #8F8C81",
"( 	c #7D7A76",
"_ 	c #BEBEB6",
": 	c #BEBAB6",
"< 	c #BCB8AC",
"[ 	c #B9B1A9",
"} 	c #AEAEA6",
"| 	c #A9A6A2",
"1 	c #A4A196",
"2 	c #83807C",
"3 	c #B6B2B6",
"4 	c #797979",
"5 	c #717571",
"6 	c #717171",
"7 	c #696D69",
"8 	c #696969",
"9 	c #616561",
"0 	c #616161",
"a 	c #595D59",
"b 	c #595959",
"c 	c #515551",
"d 	c #515151",
"e 	c #494D49",
"f 	c #494949",
"g 	c #484448",
"h 	c #474347",
"i 	c #3E3E3E",
"j 	c #7C7C7C",
"k 	c #A39C95",
"l 	c #918A83",
"m 	c #000000",
"n 	c #8E8E8E",
"o 	c #C7C3C7",
"p 	c #9E9A9E",
"q 	c #969696",
"r 	c #8E8A8E",
"s 	c #868286",
"t 	c #868686",
"u 	c #494549",
"v 	c #3F3F3F",
"w 	c #3E393E",
"x 	c #3C373C",
"y 	c #96938F",
"z 	c #B6B6B6",
"A 	c #E7E7E7",
"B 	c #A6A6A6",
"C 	c #797D79",
"D 	c #404040",
"E 	c #3F3B3F",
"F 	c #3D393D",
"G 	c #343434",
"H 	c #9B9894",
"I 	c #979489",
"J 	c #BEC3BE",
"K 	c #969296",
"L 	c #9E9E9E",
"M 	c #585858",
"N 	c #403B40",
"O 	c #3F3A3F",
"P 	c #353535",
"Q 	c #333333",
"R 	c #9C988D",
"S 	c #909089",
"T 	c #B6BAB6",
"U 	c #414141",
"V 	c #363636",
"W 	c #2C302C",
"X 	c #95958D",
"Y 	c #908D89",
"Z 	c #413C41",
"` 	c #373737",
" .	c #2D312D",
"..	c #2C2C2C",
"+.	c #95918D",
"@.	c #8F8C88",
"#.	c #2F332F",
"$.	c #2D2D2D",
"%.	c #94908D",
"&.	c #8F8881",
"*.	c #E7DFD7",
"=.	c #505050",
"-.	c #2F2F2F",
";.	c #252825",
">.	c #958D86",
",.	c #898982",
"'.	c #383838",
").	c #303430",
"!.	c #262A26",
"~.	c #252525",
"{.	c #8D8D86",
"].	c #898682",
"^.	c #303030",
"/.	c #272A27",
"(.	c #262626",
"_.	c #8D8A86",
":.	c #DFDBCF",
"<.	c #FF0000",
"[.	c #800000",
"}.	c #00FF00",
"|.	c #008000",
"1.	c #282C28",
"2.	c #282828",
"3.	c #C6C6BD",
"4.	c #C7C3B6",
"5.	c #959195",
"6.	c #484C48",
"7.	c #484848",
"8.	c #272B27",
"9.	c #272727",
"0.	c #272327",
"a.	c #B3AFA3",
"b.	c #C3BFB2",
"c.	c #BABAB2",
"d.	c #BBB7B3",
"e.	c #BAB2AA",
"f.	c #B1B1A9",
"g.	c #0000FF",
"h.	c #B0ACA0",
"i.	c #A8A8A0",
"j.	c #A9A199",
"k.	c #A19D99",
"l.	c #A29E9A",
"m.	c #9A9692",
"n.	c #000080",
"o.	c #FFFF00",
"p.	c #808000",
"q.	c #9B978C",
"r.	c #B2AEAA",
"s.	c #B2AEA3",
"t.	c #A9A9A2",
"u.	c #A9A5A1",
"v.	c #A7A098",
"w.	c #9F9F98",
"x.	c #AF7B6F",
"y.	c #A19992",
"z.	c #918D82",
"A.	c #91918A",
"B.	c #8A8682",
"C.	c #536B67",
"D.	c #888561",
"E.	c #9D9D96",
"F.	c #9D9A96",
"G.	c #9C988E",
"H.	c #9D968F",
"I.	c #96928F",
"J.	c #95928E",
"K.	c #8F8F88",
"L.	c #8E8B87",
"M.	c #8E8780",
"N.	c #86827F",
"O.	c #888181",
"P.	c #878080",
"Q.	c #414441",
"R.	c #41413B",
"S.	c #726F6C",
"T.	c #726D61",
"U.	c #5C5C55",
"V.	c #79766D",
"W.	c #79796D",
"X.	c #5B5B54",
"Y.	c #6C655B",
"Z.	c #78786C",
"`.	c #55554E",
" +	c #4B4B45",
".+	c #5F5F59",
"++	c #5F5C52",
"@+	c #515956",
"#+	c #7F7F78",
"$+	c #85857F",
"%+	c #938F85",
"&+	c #8D8D87",
"*+	c #8D8986",
"=+	c #8D8B80",
"-+	c #878480",
";+	c #86837F",
">+	c #7E7C78",
",+	c #797673",
"'+	c #596259",
")+	c #878E87",
"!+	c #8E8E87",
"~+	c #9C998F",
"{+	c #9A938D",
"]+	c #95958F",
"^+	c #969389",
"/+	c #8F8B88",
"(+	c #898282",
"_+	c #807D79",
"                                                                                                ",
"                                                                                                ",
"                                                                                                ",
"                                                                                                ",
"                                                                                                ",
"                                                                                                ",
"                                                                                                ",
"                                                                                                ",
"                                                                                                ",
"                . + + + + + @ @ # # $ $ % & . . * = - ; ; > , ' ) ! ~ { ] ^ / (                 ",
"              . + + + + + @ @ # # $ $ % & . . * - - ; ; > , ' ) _ : < [ } | 1 2                 ",
"              + + 3 4 4 4 4 4 4 5 5 6 7 7 8 9 0 0 a a b b c d e e f g h i j k l m               ",
"              + + 4 n o p q r s t n s 5 5 6 7 7 0 0 0 d e e f u f g g v w x k y m m             ",
"              + + r z A z B s C 4 4 5 5 8 9 9 0 b b b c d e e f u g D E F G H I m m             ",
"              + + 4 B J q t K K 7 C q q q 5 s n C 8 r t L 0 a n b M N O P Q R S m m             ",
"              + @ 4 B T 5 5 s 7 7 8 9 9 0 a a b c c d d e f u u U U N V P W X Y m m             ",
"              @ @ 4 p K t s C n r q 5 K 6 a C c c 4 e 0 a u u U Z Z ` V  ...+.@.m m             ",
"              # # 4 r n 6 7 7 8 9 9 0 a a b c c d d e f u u U Z Z ` ` #.$...%.&.m m m           ",
"              # *.t q K p n 4 q 5 5 s 7 C 4 8 d 5 6 a a b 7 4 9 d =.#.-.$.;.>.,.m m m           ",
"              *.$ 6 t 4 7 8 9 9 0 a a b c c d e e f u u U Z Z '.'.).-.-.!.~.{.].m m m           ",
"              $ % 6 4 7 4 9 m 0 a a b c c d e e f u u U Z Z '.'.).^.-./.(.~._.].m m m           ",
"              % $ C t 8 t 5 m 6 7 n 8 8 t 5 0 s a b 8 c 8 d 0 m m m m m m m m m m m m           ",
"              :.. 7 5 9 9 0 a a m c c d e e f u u U U Z '.m m m m m m m m m m m m m m           ",
"              . . 8 6 9 0 a a 7 m 8 d m 0 f u u U Z m '.m m m m m m m m m m m m m m m m         ",
"              . * 9 7 0 s 7 <.8 8 4 m m 0 7 m b m m m 0 m m m [.[.<.<.m m }.}.|.|.m m m         ",
"              * = 9 0 0 a b <.c d e m f u m m Z m m m ).m m <.<.<.<.<.m m }.}.}.}.}.m m         ",
"              = - 0 a a b c c d <.e f u u m Z Z m '.).^.m m <.<.<.<.<.m m }.}.}.}.}.m m         ",
"              - ; a a b c c d d <.f u <.U Z Z '.'.).<.^.m m <.<.<.<.<.m m }.}.}.}.}.m m         ",
"              ; ; a b c c d m e f u <.<.Z Z <.'.<.<.<.1.m m <.<.<.<.<.m m }.}.}.}.}.m m         ",
"              ; > b c c d d m f u u <.Z Z <.<.).<.<.<.2.m m <.<.<.<.<.m m }.}.}.}.}.m m         ",
"              > , c c r K K s n m p r 4 q <.s L <.7 n 8 m m <.[.[.m m m m m m |.|.}.m m         ",
"              3.4.5.d 6.6.7.g g m N N m ` #.-.-.8.9.m 0.m m m m m m m m m m m m m m m m         ",
"              a.b.c.d.{ e.f.g.h.h.i.m m j.k.m l.m m m m.m m m n.n.g.g.m m o.o.p.p.m m m         ",
"                q.r.s.t.t.u.g.v.w.x.m y.z.m m A.m m m B.m m g.g.g.g.g.m m o.o.o.o.o.m m         ",
"                  C.D.E.E.F.G.H.g.I.J.K.L.m @.M.m N.O.P.m m g.g.g.g.g.m m o.o.o.o.o.m m         ",
"                    m m m m Q.R.g.S.T.g.U.V.W.X.Y.Z.g.`.m m g.g.g.g.g.m m o.o.o.o.o.m m         ",
"                      m m m m  +.+.+g.g..+.+g..+g.g.g.++m m g.g.g.g.g.m m o.o.o.o.o.m m         ",
"                    @+#+$+%+m &+*+=+g.-+;+g.g.>+g.g.g.,+m m g.g.g.g.g.m m o.o.o.o.o.m m         ",
"                    '+)+!+~+{+]+m ^+!+!+/+g.&.;+g.P.(+_+m m g.n.n.m m m m m m p.p.o.m m         ",
"                          m m m m m m m m m m m m m m m m m m m m m m m m m m m m m m m         ",
"                            m m m m m m m m m m m m m m m m m m m m m m m m m m m m m m         ",
"                                  m m m m m m m m m m m m m m m                 m m m m         ",
"                                          m     m       m m                         m m         ",
"                                                                                                ",
"                                                                                                ",
"                                                                                                ",
"                                                                                                ",
"                                                                                                "};
